<svg version="1" xmlns="http://www.w3.org/2000/svg" width="677.333" height="677.333" viewBox="0 0 508.000000 508.000000"><path d="M443 34v23H75v6h368v206h6V63h43v-6h-43V11h-6v23zM103.5 168.4c-1.8 2.7-.7 6.9 2 8 .9.3 14 .6 29.1.6H162v71.8c0 55.9.3 72.2 1.3 73.4 2 2.7 5.2 3 7.8.9l2.4-1.9.3-72.1.2-72.1h27.9c25.7 0 27.9-.1 29.4-1.8 2-2.2 2.2-6.3.5-8-.9-.9-16.5-1.2-64-1.2H105l-1.5 2.4z"/><path d="M260.6 167.6c-1.4 1.4-1.6 9.7-1.6 77 0 50.2.3 76.2 1 77.5 1.3 2.3 7.1 2.6 8.9.6.8-1 1.2-20.8 1.3-67.7l.3-66.4 28.6 44c21 32.2 29.3 44.1 31.1 44.8 5.9 2.1 6 1.9 35.9-44.1l28.4-43.7.5 66c.3 36.2.9 66.5 1.3 67.1 1 1.6 6.9 1.7 8.5.1 1.7-1.7 1.7-153.9 0-155.6-1.8-1.8-6.3-1.5-8.5.5-1.1 1-15.4 22.5-31.8 47.8-16.3 25.3-30.2 46.5-30.9 47.2-.8.9-8.5-10.3-31.6-46-16.8-25.9-31.3-47.9-32.2-48.9-2.2-2.2-7.1-2.3-9.2-.2zM59 342.5V445H17v6h42v47h6v-47h369v-6H65V240h-6v102.5z"/></svg>