<?xml version="1.0" standalone="no"?>
<!DOCTYPE svg PUBLIC "-//W3C//DTD SVG 20010904//EN"
 "http://www.w3.org/TR/2001/REC-SVG-20010904/DTD/svg10.dtd">
<svg version="1.0" xmlns="http://www.w3.org/2000/svg"
 width="354.000000pt" height="354.000000pt" viewBox="0 0 354.000000 354.000000"
 preserveAspectRatio="xMidYMid meet">
<metadata>
Created by potrace 1.11, written by Peter Selinger 2001-2013
</metadata>
<g transform="translate(0.000000,354.000000) scale(0.100000,-0.100000)"
fill="#000000" stroke="none">
<path d="M5 3483 c14 -135 75 -293 155 -398 20 -27 101 -115 179 -195 78 -80
167 -172 197 -204 123 -132 284 -359 339 -479 49 -108 63 -181 81 -432 7 -101
5 -97 115 -203 l76 -72 43 112 c35 92 44 108 51 91 17 -47 24 -179 24 -458 0
-329 -7 -468 -39 -826 -4 -35 2 -43 170 -210 109 -109 177 -170 183 -164 8 9
58 97 146 260 21 39 75 138 120 220 45 83 99 182 120 220 21 39 49 90 63 113
l25 44 40 -40 c46 -46 41 0 52 -492 4 -162 10 -298 13 -302 4 -4 60 -18 125
-32 65 -14 128 -28 141 -32 21 -5 39 17 168 193 l145 199 8 69 c5 39 9 73 11
78 1 4 2 18 3 31 0 14 12 37 26 52 l25 27 66 -65 66 -65 34 32 c19 18 34 37
34 42 0 6 -28 38 -62 73 l-62 62 27 24 c16 13 36 24 45 25 9 0 26 2 37 3 11 2
49 6 85 11 64 7 69 10 262 152 168 123 197 148 193 167 -3 11 -16 75 -30 140
-13 66 -28 123 -32 127 -7 6 -122 10 -675 23 -76 2 -79 3 -118 41 -22 21 -37
42 -32 46 4 4 189 107 412 228 475 259 433 235 437 247 2 5 -75 87 -170 182
-127 126 -178 171 -192 168 -11 -2 -65 -7 -120 -11 -55 -4 -116 -9 -135 -11
-243 -20 -807 -27 -950 -10 -127 14 -127 18 -2 66 l112 43 -38 41 c-20 23 -62
64 -92 93 l-55 52 -85 5 c-232 16 -281 23 -365 51 -144 49 -409 230 -585 401
-36 35 -121 118 -190 185 -69 66 -147 138 -175 159 -87 67 -236 132 -330 145
-16 2 -52 7 -78 10 l-48 6 6 -58z m229 -104 c84 -31 165 -89 277 -196 l102
-99 -79 -77 -78 -77 -74 72 c-142 141 -215 254 -246 382 -7 27 -5 28 19 22 14
-4 50 -16 79 -27z m519 -432 l58 -54 -40 -17 c-47 -22 -82 -57 -108 -109 l-18
-37 -54 61 -54 61 74 74 c40 41 76 74 79 74 3 0 31 -24 63 -53z m160 -165 c15
-6 247 -230 247 -238 0 -2 -15 -11 -32 -20 -46 -23 -87 -63 -110 -107 l-19
-39 -42 39 c-108 98 -196 200 -202 235 -16 87 75 162 158 130z m568 -281 c30
-5 90 -13 134 -16 164 -11 198 -16 211 -30 17 -16 18 -25 4 -25 -15 0 -191
-85 -215 -103 -20 -15 -20 -16 10 -47 17 -18 48 -41 69 -52 47 -24 200 -56
282 -59 l59 -2 283 -281 c155 -154 282 -283 282 -286 0 -3 -26 -20 -57 -38
-32 -17 -64 -36 -72 -41 -10 -6 14 -35 94 -115 59 -58 110 -106 113 -107 9 -1
159 -6 462 -13 134 -4 245 -8 246 -9 2 -1 5 -14 8 -27 2 -14 9 -44 14 -67 l10
-43 -147 -108 c-177 -131 -161 -121 -213 -128 -24 -2 -52 -7 -63 -9 -16 -3
-198 173 -850 826 -821 821 -829 829 -774 810 31 -10 81 -24 110 -30z m-201
-81 c19 -11 1570 -1561 1570 -1570 0 -4 -9 -15 -20 -25 -19 -18 -21 -17 -80
33 -33 29 -88 76 -122 104 -35 29 -65 55 -68 58 -13 14 -197 167 -207 174 -17
9 -17 1 0 -16 11 -12 151 -177 188 -223 16 -19 71 -84 127 -150 14 -16 34 -40
45 -52 20 -22 20 -23 2 -43 -10 -11 -21 -20 -24 -20 -4 0 -358 351 -786 779
-550 550 -783 790 -792 813 -15 45 -6 83 28 118 39 38 90 45 139 20z m1365
-1869 c-1 -9 -6 -39 -9 -67 -6 -43 -22 -70 -121 -205 l-114 -156 -70 15 -71
15 -1 66 c0 36 -2 127 -4 201 -2 74 -5 205 -7 290 l-3 155 -109 107 c-60 59
-112 106 -115 104 -3 -3 -22 -34 -41 -70 -19 -36 -37 -66 -40 -66 -3 0 -131
126 -284 279 -272 272 -279 280 -282 322 -6 81 -13 136 -30 214 -12 56 -51
130 -87 163 l-35 34 -51 -104 c-28 -57 -51 -108 -51 -114 0 -6 -6 -17 -14 -23
-29 -24 -35 3 -52 224 -6 85 -24 173 -49 246 -14 39 77 -49 814 -785 515 -515
828 -835 826 -845z m574 1545 c58 -58 103 -107 100 -109 -2 -2 -69 -39 -149
-82 -80 -43 -158 -86 -175 -95 -139 -78 -276 -150 -282 -150 -5 0 -120 112
-257 249 l-249 249 84 0 c87 -1 407 11 469 17 19 2 80 6 135 10 55 4 101 8
102 8 1 1 28 3 60 5 l58 3 104 -105z m-1339 -1269 c0 -5 -36 -74 -80 -153 -44
-80 -80 -147 -80 -149 0 -2 -13 -26 -28 -52 -16 -26 -52 -93 -82 -148 -29 -55
-55 -102 -57 -104 -2 -3 -51 42 -109 100 l-105 104 6 90 c3 50 8 106 10 125 4
36 13 182 20 345 3 50 5 148 6 219 l1 129 249 -249 c137 -137 249 -253 249
-257z"/>
</g>
</svg>
