<svg xmlns="http://www.w3.org/2000/svg" viewBox="0 0 448 448" version="1"><path d="M224 0A227 227 0 0 0 0 230c0 101 64 187 153 218 11 2 15-5 15-11v-40c-62 14-75-30-75-30-10-27-25-34-25-34-21-14 1-14 1-14 23 2 35 24 35 24 20 35 52 25 65 19 2-15 8-25 14-31-50-6-102-25-102-113 0-25 9-46 23-62-2-6-10-29 2-61 0 0 19-6 62 24a210 210 0 0 1 112 0c43-30 62-24 62-24 12 32 4 55 2 61 14 16 23 37 23 62 0 88-53 107-103 113 8 7 16 21 16 42l-1 63c0 7 4 14 16 11 89-30 153-116 153-217C448 103 348 0 224 0z" class="st0"/></svg>