<svg version="1" xmlns="http://www.w3.org/2000/svg" width="465.333" height="465.333" viewBox="0 0 349.000000 349.000000"><path d="M235.3 9.2C232.7 12 102 331.8 102 335.2c0 5.2 7.1 8.5 11.3 5.4 1.9-1.5 132.5-319.8 133.4-325.4 1.2-6.6-6.9-10.8-11.4-6zM91.4 66.3C88.2 68.1 1.1 170.1.4 172.8c-.4 1.3-.2 3.3.4 4.5 2 4.1 88.4 104.2 91 105.5 4.9 2.4 10.2-1.5 10.2-7.3 0-.8-19.1-23.8-42.5-51.1-36.1-42.3-42.3-50-41.2-51.3.6-.9 19.6-23.1 42.2-49.5 36.2-42.4 40.9-48.3 40.9-51.3 0-1.8-.7-4-1.4-4.7-2.2-2.1-6.2-2.7-8.6-1.3zM251.2 66c-2.1.9-4.2 4.6-4.2 7.5 0 .8 19.1 23.8 42.5 51.1 36.1 42.2 42.3 50 41.2 51.3-.6.8-19.5 22.9-41.8 49.1-22.3 26.1-40.9 48.5-41.3 49.6-1.8 5.6 4.3 10.8 9.5 8.2 2.8-1.3 89.1-101.5 91.1-105.6.8-1.5.8-3.1.2-4.7-.5-1.4-20-24.8-43.4-52.1s-43.4-50.7-44.5-52c-2.3-2.7-6.1-3.7-9.3-2.4z"/></svg>